<?xml version="1.0" encoding="UTF-8" standalone="no"?>
<!-- Generator: Adobe Illustrator 15.0.0, SVG Export Plug-In . SVG Version: 6.00 Build 0)  -->

<svg
   xmlns:dc="http://purl.org/dc/elements/1.1/"
   xmlns:cc="http://creativecommons.org/ns#"
   xmlns:rdf="http://www.w3.org/1999/02/22-rdf-syntax-ns#"
   xmlns:svg="http://www.w3.org/2000/svg"
   xmlns="http://www.w3.org/2000/svg"
   xmlns:sodipodi="http://sodipodi.sourceforge.net/DTD/sodipodi-0.dtd"
   xmlns:inkscape="http://www.inkscape.org/namespaces/inkscape"
   version="1.1"
   id="svg2830"
   inkscape:version="0.48.1 "
   sodipodi:docname="Sport_records_icon_MSA (1).svg"
   inkscape:output_extension="org.inkscape.output.svg.inkscape"
   x="0px"
   y="0px"
   width="180px"
   height="128px"
   viewBox="0 0 180 128"
   enable-background="new 0 0 180 128"
   xml:space="preserve"><metadata
   id="metadata9"><rdf:RDF><cc:Work
       rdf:about=""><dc:format>image/svg+xml</dc:format><dc:type
         rdf:resource="http://purl.org/dc/dcmitype/StillImage" /></cc:Work></rdf:RDF></metadata>
<defs
   id="defs3">
	
	
		<inkscape:perspective
   id="perspective2842"
   inkscape:persp3d-origin="90 : 42.666667 : 1"
   inkscape:vp_z="180 : 64 : 1"
   inkscape:vp_y="0 : 1000 : 0"
   inkscape:vp_x="0 : 64 : 1"
   sodipodi:type="inkscape:persp3d">
		</inkscape:perspective>
</defs>
<sodipodi:namedview
   id="namedview2836"
   inkscape:current-layer="svg2830"
   inkscape:window-y="-8"
   inkscape:window-x="-8"
   inkscape:window-height="738"
   inkscape:window-width="1280"
   inkscape:pageshadow="2"
   inkscape:pageopacity="0"
   inkscape:cy="64"
   inkscape:cx="90"
   inkscape:zoom="4.0546875"
   showgrid="false"
   pagecolor="#ffffff"
   guidetolerance="10"
   gridtolerance="10"
   objecttolerance="10"
   borderopacity="1"
   bordercolor="#666666"
   inkscape:window-maximized="1">
	</sodipodi:namedview>

<g
   id="g3011"><path
     d="m 177,85 c 0,-22.16 0,-82 0,-82 H 43 C 20.84,3 3,20.84 3,43 c 0,22.16 0,82 0,82 h 134 c 22.16,0 40,-17.84 40,-40 z"
     id="path2832"
     inkscape:connector-curvature="0"
     style="fill:#254061;stroke:#376092;stroke-width:6;stroke-linejoin:round" /><g
     id="text2834"
     style="font-size:75.1615448px;font-style:normal;font-variant:normal;font-weight:bold;font-stretch:normal;fill:#ffffff;font-family:Bitstream Vera Sans;-inkscape-font-specification:Bitstream Vera Sans Bold"
     transform="matrix(0.89752155,0,0,1.1170087,-0.8107465,-0.07257852)"><path
       id="path2987"
       style="font-size:75.1615448px;font-style:normal;font-variant:normal;font-weight:bold;font-stretch:normal;fill:#ffffff;font-family:Bitstream Vera Sans;-inkscape-font-specification:Bitstream Vera Sans Bold"
       d="m 10.930931,32.575539 17.982987,0 12.477991,29.323279 12.551391,-29.323279 17.946286,0 0,54.79306 -13.35879,0 0,-40.076371 -12.62479,29.543479 -8.954794,0 -12.624791,-29.543479 0,40.076371 -13.39549,0 z"
       inkscape:connector-curvature="0" /><path
       id="path2989"
       style="font-size:75.1615448px;font-style:normal;font-variant:normal;font-weight:bold;font-stretch:normal;fill:#ffffff;font-family:Bitstream Vera Sans;-inkscape-font-specification:Bitstream Vera Sans Bold"
       d="m 123.93015,34.300438 0,11.597191 c -3.00944,-1.345622 -5.94544,-2.360987 -8.808,-3.046097 -2.86263,-0.685021 -5.56619,-1.027554 -8.11069,-1.0276 -3.37642,4.6e-5 -5.87202,0.464912 -7.486796,1.394599 -1.614818,0.929776 -2.422216,2.373307 -2.422198,4.330597 -1.8e-5,1.468037 0.544364,2.611852 1.633149,3.431448 1.088744,0.819668 3.064425,1.523083 5.927045,2.110248 l 6.0188,1.211099 c 6.09215,1.223365 10.42275,3.082828 12.99179,5.578396 2.56895,2.495623 3.85344,6.043284 3.85349,10.642992 -5e-5,6.043273 -1.79223,10.539016 -5.37654,13.48724 -3.58441,2.948232 -9.05881,4.422346 -16.42324,4.422347 -3.47429,-10e-7 -6.960782,-0.3303 -10.459493,-0.990899 C 91.768723,86.7814 88.269996,85.802735 84.771275,84.506001 l 0,-11.927491 c 3.498721,1.859478 6.881232,3.260192 10.147542,4.202147 3.266279,0.941975 6.416353,1.412958 9.450243,1.412949 3.08277,9e-6 5.4438,-0.51379 7.0831,-1.541399 1.63923,-1.027588 2.45886,-2.495585 2.45889,-4.403997 -3e-5,-1.712649 -0.55665,-3.033846 -1.66985,-3.963597 -1.11326,-0.929713 -3.33361,-1.761578 -6.66104,-2.495598 l -5.4683,-1.211099 C 94.631318,63.403541 90.624909,61.531844 88.092622,58.96282 85.560318,56.393853 84.29417,52.931825 84.294175,48.576727 c -5e-6,-5.456018 1.761592,-9.652044 5.284796,-12.58809 3.523183,-2.935944 8.587775,-4.403941 15.193789,-4.403997 3.00937,5.6e-5 6.1044,0.226372 9.28509,0.678949 3.18063,0.452688 6.47139,1.131637 9.8723,2.036849 z"
       inkscape:connector-curvature="0" /><path
       id="path2991"
       style="font-size:75.1615448px;font-style:normal;font-variant:normal;font-weight:bold;font-stretch:normal;fill:#ffffff;font-family:Bitstream Vera Sans;-inkscape-font-specification:Bitstream Vera Sans Bold"
       d="m 173.21822,77.386206 -22.09339,0 -3.4865,9.982393 -14.20288,0 20.29508,-54.79306 16.84529,0 20.29508,54.79306 -14.20289,0 z m -18.57019,-10.165892 15.01029,0 -7.4868,-21.799784 z"
       inkscape:connector-curvature="0" /></g></g>
</svg>